# xmcd CD database file
#
# Track frame offsets:
#	150
#	99828
#	163975
#	171288
#	180048
#	183713
#	189965
#	192258
#	201835
#	208113
#	212578
#	220880
#	237798
#	250868
#	255508
#	269233
#	282288
#
# Disc length: 4073 seconds
#
# Revision: 0
# Processed by: cddbd v1.5.2PL0 Copyright (c) Steve Scherf et al.
# Submitted via: CDex 1.51
#
DISCID=fc0fe711
DTITLE=BBC Philharmonic - Downes - Elgar Orchestral Music
DYEAR=1989
DGENRE=Orchestral
TTITLE0=In the South (Alassio) Op.50 - Concert Overture
TTITLE1=Froissart Op.19 - Concert Overture
TTITLE2=Enigma Variations - Theme. Andante
TTITLE3=Enigma Variations -I- (C.A.E) L'istesso tempo
TTITLE4=Enigma Variations -II- (H.D.S.-P) Allegro
TTITLE5=Enigma Variations -III- (R.B.T.) Allegretto
TTITLE6=Enigma Variations -IV- (W.M.B) Allegro di molto
TTITLE7=Enigma Variations -V- (R.P.A.) Moderato
TTITLE8=Enigma Variations -VI- (Ysobel) Andantino
TTITLE9=Enigma Variations -VII- (Troyte) Presto
TTITLE10=Enigma Variations -VIII- (WN) Allegretto
TTITLE11=Enigma Variations -IX- (Nimrod) Adagio
TTITLE12=Enigma Variations -X- (Dorabella) Intermezzo. Allegretto
TTITLE13=Enigma Variations -XI- (G.R.S.) Allegro di molto
TTITLE14=Enigma Variations -XII- (B.G.N.) Andante
TTITLE15=Enigma Variations -XIII- (***) Romanza. Moderato
TTITLE16=Enigma Variations -XIV- (E.D.U.) Finale. Allegro/Presto
EXTD=YEAR: 1989
EXTT0=
EXTT1=
EXTT2=
EXTT3=
EXTT4=
EXTT5=
EXTT6=
EXTT7=
EXTT8=
EXTT9=
EXTT10=
EXTT11=
EXTT12=
EXTT13=
EXTT14=
EXTT15=
EXTT16=
PLAYORDER=
